<svg version="1.1" id="Phoenix--Streamline-Noto-Emoji" xmlns="http://www.w3.org/2000/svg" xmlns:xlink="http://www.w3.org/1999/xlink" x="0" y="0" viewBox="0 0 128 128" xml:space="preserve" enable-background="new 0 0 128 128" height="32" width="32">
  <desc>
    Phoenix Streamline Emoji: https://streamlinehq.com
  </desc>
  <path d="M73.5 32.2s1-1.7 1-2.9c-.1-1.3-.6-3-2.1-4s-2.9-.6-3.2-.2c-.3.3 2.7 2 2.6 4.4s-2.7 4.8-2.7 4.8l4.4-2.1z" fill="#C30B1B"></path>
  <path d="m98.4 57.6-33.7 20 2 8.6 7.4-.9s10.8 4.4 21.9-1.2c10.3-5.3 9.6-14.2 9.9-14.6.2-.5 14.2-7.6 12.8-26-1.1-15-8.7-18.8-9.4-18.8s-1.3.9-1.3.9l.6 3.1-1.3.3s-.6-10.3-3.9-15.2-7.3-6.5-8.4-6.5-1.2 1-1.2 1l3 4s-.2 2.1-1.3 1.8c-1.1-.4-2.4-4.7-4.6-7.3s-4.6-4.2-6.7-4.1C83 2.7 83.1 4 83.1 4l8.2 11.9 7.1 41.7z" fill="#AF0C1A"></path>
  <path d="M67.6 37.3s2.1.8 2.6.9 5.4.4 7.2-4c1.3-3.2 0-6.3-.9-6.8-.4-.3-.7-.2-.7-.2s-1 5.8-1.4 6.3-6.8 3.8-6.8 3.8z" fill="#C30B1B"></path>
  <radialGradient id="SVGID_1_" cx="65.501" cy="43.202" r="39.887" gradientTransform="matrix(1 0 0 -1 0 130)" gradientUnits="userSpaceOnUse">
    <stop offset=".261" stop-color="#E03623"></stop>
    <stop offset=".692" stop-color="#FF6614"></stop>
  </radialGradient>
  <path d="M65.5 89.8 47.3 93s-4.4 7.1-9.4 10.6-8.9 5.4-8.6 6.4 10.9 5.2 10.9 5.2 6.6 1.6 13.8 2c7.2.5 11.3-.2 11.3-.2s10.3 2.1 15.1 1 9.3-2.3 9.3-2.3 4.9-.2 8-1.6 4.4-4.4 4.4-4.4-5.2-2.8-12.9-8.6c-5.6-4.2-8.8-8-8.8-8l-14.9-3.3z" fill="url(#SVGID_1_)"></path>
  <path d="M44.2 59.2c-.4-.1-2.1-7.8-2.4-13.9s0-26.6.2-31.7c.1-4.1 2.8-8.7 1.9-9.2-1.7-.9-5.9 1.7-8.4 6.1-2.1 3.6-2.1 5.7-2.1 6.5-.5.1-1.2-4.3-1.2-4.3s1.2-3.5.4-3.9c-.9-.5-6 .6-8 8.5-1 3.7-.8 6.9-.7 7.7-.4-.3-1.3-1.5-1.5-2.8-.5-2.2-.2-4.8-.9-4.9-2.2-.3-7.8 5.8-8.3 15.2-.4 7.5.9 10.9 1.2 13.1-.9-.2-2.1-1.7-3.4-1-1.5.8-3.1 7.2-.2 13.1 2.3 4.6 5.3 6.8 5.8 7.7.4.9 1 9.5 8.6 14.9 13 9.1 27.8 4 27.8 4l-8.8-25.1z" fill="#AF0C1A"></path>
  <radialGradient id="SVGID_00000067217946564494090050000001061893562748390334_" cx="52.145" cy="38.572" r="87.148" gradientTransform="matrix(1 0 0 -1 0 130)" gradientUnits="userSpaceOnUse">
    <stop offset="0" stop-color="#FE7F07"></stop>
    <stop offset=".783" stop-color="#DC2B25"></stop>
  </radialGradient>
  <path d="M54.6 55.8c-.4-.1-3.4-.8-4.5-1.2s-6.6-3.4-7-9.5 2.1-8.8 3.6-11.2c2.3-3.8.7-5.2-1.2-9.9s-2.2-6.8-2.3-10.8 1.4-8.2.7-8.7-5.2 3.4-7.1 7.2-1.5 6.7-2 6.8-2.2-1.9-2.3-4.5.6-4.8 0-5c-.6-.3-4.6 2.5-5.9 8.7s-.3 8.8-.9 8.9c-.6.2-2.5-2-3.2-4.1s-.4-4.3-1-4.5c-.8-.2-6.2 5.1-6.6 14.9-.4 10.1 2.2 12.4 1 13.2s-3.1-2.1-4.1-1.5c-1.5.9-2.1 6.8.8 12.7 2.3 4.6 5.6 6.4 6.1 7.3.4.9.2 7.8 7.8 13.2 11.3 8.2 24.2 4 24.2 4l3.9-26z" fill="url(#SVGID_00000067217946564494090050000001061893562748390334_)"></path>
  <path d="M63.2 29.9s6.9.3 6.6-2.6c-.1-1.3-.9-1.4-.7-2.1.1-.5 1.8-.2 2.6.5 1.1 1 1.7 3.1.9 5.2S70 33.5 70 33.5s-4.2-1.3-4.3-1.4-2.5-2.2-2.5-2.2z" fill="#DC0D27"></path>
  <radialGradient id="SVGID_00000051374087451050348340000008513322463460200095_" cx="50.28" cy="117.719" r="55.571" gradientTransform="matrix(.9997 -.0261 -.0319 -1.2186 16.525 223.332)" gradientUnits="userSpaceOnUse">
    <stop offset=".25" stop-color="#FE7F07"></stop>
    <stop offset=".398" stop-color="#F8700C"></stop>
    <stop offset=".681" stop-color="#E8491A"></stop>
    <stop offset=".869" stop-color="#DC2B25"></stop>
  </radialGradient>
  <path d="M54.1 33.1c.7-.3 2.5-4.1 6.6-4.3 4.1-.2 7 3.3 7.5 3.5s3.2.3 4.7-1.2 2.3-4 2.9-4 1.8 5.3-.3 7.6c-2.6 2.9-5.4 2.1-5.4 2.4 0 .3 2.3 4.5 1.5 10.4-.8 6-4 8.7-3.4 9.8s6.7 2 11.4-3.7c5.1-6.2 1.2-15.3 1.4-19.8.2-4.6 4-7.3 4.2-16.2.2-7.8-1.7-12.9-2-13.8s.8-.7 1.5-.4c1.2.5 3.7 1.7 5.9 5.4 2.2 3.6 3.3 6.6 4.1 6.6.8.1 1.1-1.6.8-2.4-.3-.9-1.7-4-1.6-4.7s8.3 2.6 10.2 11.3.5 10.5 1.7 10.9c1.2.3 1.9-3.1 2-3.7.2-.6.2-1.7.7-1.6s7.5 6 8.5 17.2c1.6 18-14 25.8-14 25.8s0 10.7-11.9 14.5S68 79 67.6 78.8s-1-.5-1.2-.2.3 1.9 2.4 3.5c2.1 1.7 5.2 3.1 5.2 3.1s2.7 3.7 5 5.7c2.4 1.9 4.7 3.6 5.4 4 .6.4.8.9 0 1.1s-3 .7-6.7 0c-2.3-.4-4.6-2.1-4.6-2.1s-.8 4-5.1 4.6-6.9-3.2-6.9-3.2-.3 3.3-4.1 3.6c-5 .4-6.7-4.2-6.7-4.2s-2.1 1.5-3.8 1.4c-1.7 0-3.3-.8-3.1-1.3s3.1-2.5 4.5-4.9c1.1-2 1.8-3.7 1.9-6.9.1-2.8-.9-4.6-.9-4.6 0-.1.2-14.3 1.9-21.3.6-2.4 3.9-3.3 3.9-3.3s5.9-3.1 5.8-8.4c0-4.7-4.1-5.2-4.1-5.2l-2.3-7.1z" fill="url(#SVGID_00000051374087451050348340000008513322463460200095_)"></path>
  <g>
    <radialGradient id="SVGID_00000085953760286653233660000015751595435559665540_" cx="-391.568" cy="988.875" r="36.064" gradientTransform="matrix(-.0439 .999 1.9441 .0855 -1871.485 392.991)" gradientUnits="userSpaceOnUse">
      <stop offset=".504" stop-color="#FFD84E"></stop>
      <stop offset=".653" stop-color="#FFD64B"></stop>
      <stop offset=".761" stop-color="#FFCE42"></stop>
      <stop offset=".857" stop-color="#FFC132"></stop>
      <stop offset=".946" stop-color="#FEAF1C"></stop>
      <stop offset=".979" stop-color="#FEA611"></stop>
    </radialGradient>
    <path d="M40 115.6s-6.6 3.5-13.2-2.9c-4.8-4.6-4.7-10.6-6.6-13.9-2-3.5-3.4-4.4-3.1-4.9s5.2.2 9.4 5.4c2.5 3.1 3.9 6 6.8 9.8s5.8 5.1 5.8 5.1-2.7-3.7-3.5-8.1c-.5-2.9-1.9-6.2-3.2-7.7s-4.2-4.4-4.2-4.8 4.6-.6 9.2 2.9c2.5 1.9 3.9 4.2 6.2 6.5.9.9 3 2.4 3 2.4s-1.3-2.7-1-6.2c.2-2.5 1.1-5.6 1.7-5.6.6 0 .1 3.9 2 6.8 3.1 4.8 6.1 5 9.9 8s6.5 7.4 6.5 7.4 2.4-1.9 5.9-2.6c3.6-.7 7.8-.8 10.6-4.4 2.8-3.6 2.4-7.1 4.4-10.2 2.7-4 7.6-5.2 7.9-4.5s-2.7 3.3-3 6.8.5 7.5.4 9.4-.9 3.6-.9 3.6 3.6-1.5 5.9-3.9c2.2-2.4 4-5.2 7.1-6.7 2.2-1.1 5.1-1 5.2-.4s-1.7.4-3.3 5.7c-1.6 5.3-3.1 9.7-9.3 11.3-6.2 1.6-10-.8-10-.8s-3.7 2.4-10.6 2.3c-6.6-.1-9.5-2.3-9.5-2.3s-6.7 2.4-15.1 1.7c-7.1-.8-11.4-5.2-11.4-5.2z" fill="url(#SVGID_00000085953760286653233660000015751595435559665540_)"></path>
    <linearGradient id="SVGID_00000080904866914676122000000006626397215837134779_" gradientUnits="userSpaceOnUse" x1="74.694" y1="16.578" x2="78.067" y2="24.224" gradientTransform="matrix(1 0 0 -1 0 130)">
      <stop offset="0" stop-color="#FEA611"></stop>
      <stop offset=".108" stop-color="#FEAE1B"></stop>
      <stop offset=".46" stop-color="#FFC537"></stop>
      <stop offset=".77" stop-color="#FFD348"></stop>
      <stop offset="1" stop-color="#FFD84E"></stop>
    </linearGradient>
    <path d="M75.9 110.2c.3.1 3.5-.6 3.9-3.4.4-2.1 0-3.5.5-4.9s1.4-2.9 1.1-3.1c-.1-.1-2.8.6-4 3.2-.9 1.9-.6 3.4-.8 5.3 0 1.5-.8 2.8-.7 2.9z" fill="url(#SVGID_00000080904866914676122000000006626397215837134779_)"></path>
    <linearGradient id="SVGID_00000071527424749136183460000015673200477209170332_" gradientUnits="userSpaceOnUse" x1="93.644" y1="20.392" x2="101.889" y2="33.435" gradientTransform="matrix(1 0 0 -1 0 130)">
      <stop offset="0" stop-color="#FEA611"></stop>
      <stop offset="1" stop-color="#FFD84E"></stop>
    </linearGradient>
    <path d="M94.5 101.6c0 .2 6 1.5 8.4-.6 1.5-1.3 2.7-3.5 3.2-5.8.9-3.6.7-7.4.5-7.4-.2-.1-2.9.7-5.4 4.9-1.5 2.5-1.9 4.1-3.4 6.1-.8 1.1-3.4 2.7-3.3 2.8z" fill="url(#SVGID_00000071527424749136183460000015673200477209170332_)"></path>
    <linearGradient id="SVGID_00000098201576992560701000000014967156636849700286_" gradientUnits="userSpaceOnUse" x1="57.509" y1="5.345" x2="48.77" y2="23.496" gradientTransform="matrix(1 0 0 -1 0 130)">
      <stop offset=".003" stop-color="#FECA4C"></stop>
      <stop offset=".151" stop-color="#FED55F"></stop>
      <stop offset=".351" stop-color="#FFDF71"></stop>
      <stop offset=".56" stop-color="#FFE57C"></stop>
      <stop offset=".79" stop-color="#FFE780"></stop>
    </linearGradient>
    <path d="M63.8 119.7s-1.3-4.9-4.3-7.4-5.6-4.1-7-5.2c-1.8-1.4-3.8-3.5-4-3.4-.1 0 .2 2.7 1.3 5.1.5 1 1.7 3.1 1.7 3.1s-2.9-.2-5.8-2.1c-2.9-1.9-5-3.6-5.3-3.6 0 0 1.2 5.7 3.9 8.6 3.7 4 6.9 5.9 6.9 5.9s3.7.2 6.3 0c2.8-.3 6.3-1 6.3-1z" fill="url(#SVGID_00000098201576992560701000000014967156636849700286_)"></path>
    <linearGradient id="SVGID_00000024724302055605904650000009562286844756705671_" gradientUnits="userSpaceOnUse" x1="70.713" y1="6.228" x2="83.066" y2="19.674" gradientTransform="matrix(1 0 0 -1 0 130)">
      <stop offset=".19" stop-color="#FECA4C"></stop>
      <stop offset=".304" stop-color="#FED55F"></stop>
      <stop offset=".455" stop-color="#FFDF72"></stop>
      <stop offset=".613" stop-color="#FFE57C"></stop>
      <stop offset=".79" stop-color="#FFE780"></stop>
    </linearGradient>
    <path d="M86.7 109.4c-.1 0-3 4-6.4 5.4s-6.4 1.3-9.2 2.1c-1.7.5-4.7 2-4.7 2s2.7 2.1 7.7 2.4 8.3-.7 8.3-.7 2.6-2.5 3.7-6c1.1-3.3.9-5.2.6-5.2z" fill="url(#SVGID_00000024724302055605904650000009562286844756705671_)"></path>
  </g>
  <path d="M54.3 32.9s-3.1 1.2-4.8 2.9c-1.1 1.1-1.5 2.8-.9 3.4.8.8 3.9.7 4.9.8s3.1.5 3.1.5.7-.3 1-1.4c.4-1.2.2-2.2.2-2.2l-.3-1.1s-.7-.9-1.5-1.6c-.8-.9-1.7-1.3-1.7-1.3z" fill="#FBB67D"></path>
  <path d="M56.9 37.8c.2 0 .5.3.9.1.4-.1.8-1.1.7-1.5s-.8-.8-.9-.7c-.2 0-.7.8-.9.9-.1.1-2.3.9-3.9 1.3s-4.3 1-4.3 1 .2.5 1 .7c.8.1 3.4-.3 4.5-.7 1.2-.4 2.9-1.1 2.9-1.1z" fill="#AF0C1A"></path>
  <path d="M62.6 35.4c.9-.2 1.3-1.3 1.8-1.3.6 0 1.3 2.9-1.4 3.4-2.6.5-3.4-2.2-2.9-2.5.4-.2 1.7.6 2.5.4z" fill="#8A1E0D"></path>
  <path d="M54.7 98.7s1.3 6.9 1.6 9.7c.3 2.8 1.1 8 .8 8.8s-3.3 2.8-4.1 3.3-3.1 1.7-2.9 2.7c.2 1.1 3.7 1.4 6.6.3 2.9-1.1 5.3-2.9 5.4-3.6.5-3.1-.1-7.4-.5-10.5-.6-4.9-1.9-11.3-1.9-11.3s-.9.6-2.2.9c-1.3.2-2.8-.3-2.8-.3z" fill="#AF0C1A"></path>
  <path d="M66.3 98.5s2.4 4.4 2.2 5c-.2.7-3.9.4-4.9 1.9s-.2 4.3.3 5.4c.6 1.2 1.9 3.4 3 3.3 1.4-.1.5-4.5 1.1-5.3s4.9-2.3 5.6-2.9c.6-.6.7-2.1.3-3.1l-2.8-5.6s-.9.7-2 1.1c-.8.3-2.8.2-2.8.2z" fill="#AF0C1A"></path>
  <radialGradient id="SVGID_00000152247568059393366770000015060051791766910906_" cx="55.177" cy="72.118" r="25.653" gradientTransform="matrix(1 0 0 -1 0 130)" gradientUnits="userSpaceOnUse">
    <stop offset=".185" stop-color="#FFB800"></stop>
    <stop offset=".979" stop-color="#FF9A02"></stop>
  </radialGradient>
  <path d="M56.2 87.7c.5.1 5.6-7.4 8.5-16.2 2-6 1.6-17.7-9.5-17.7-10.3 0-11.2 11.6-9.4 16.9 2.6 7.8 9.9 17 10.4 17z" fill="url(#SVGID_00000152247568059393366770000015060051791766910906_)"></path>
</svg>